/* XPM */
static char *d8c129ee38134957ec86b135c8a78cbeOtPPqFK0m5Z3023g[] = {
/* columns rows colors chars-per-pixel */
"32 32 2 1 ",
"  c None",
". c white",
/* pixels */
"                                ",
"                                ",
"                                ",
"                                ",
"                                ",
"                                ",
"                                ",
"                                ",
"                                ",
"                                ",
"                                ",
"                                ",
"                                ",
"                                ",
"                                ",
"                                ",
"                                ",
"                                ",
"                                ",
"                                ",
"       .................        ",
"       .               .        ",
"       .               .        ",
"       .  ..       ..  .        ",
"       .               .        ",
"       .               .        ",
"       .       ...     .        ",
"       .      ..       .        ",
"       .               .        ",
"       .               .        ",
"       .               .        ",
"       .................        "
};
