/* XPM */
static char *fe7af554d6774a298e409c36e78eb97eSMZ0kNwkgKMtgDTd[] = {
/* columns rows colors chars-per-pixel */
"32 32 2 1 ",
"  c None",
". c #E00000",
/* pixels */
"................................",
"..                           ...",
". .                         .. .",
". ..                       ..  .",
".  ..      .     .       ..    .",
".   .                    .     .",
".    .                  .      .",
".    ..    .          ..       .",
".     .    ..   .    ..        .",
".      ..   .....   .          .",
".       ..        ..       .   .",
".        ..       .   ..       .",
".   .  .  ..    ..   ..        .",
".   .  .    ..  .    .         .",
".      .     ...     .         .",
".      .      ...              .",
".   .  .     .. ..      .      .",
".      .    ..   ...           .",
".          ..      .           .",
".         ..        .          .",
".         .          ..        .",
".        ..            .       .",
".       ..    .        ..      .",
".      ..       .       ..     .",
".      .                 ..    .",
".     .      .            ..   .",
".    .       .             ..  .",
".   ..       ..              . .",
".  ..          ...            ..",
". ..                         ...",
"...                          ...",
"................................"
};
