/* XPM */
static char *f88f119900524de3cf728eaf9e65fd71dAIQK2BHDifK28uW[] = {
/* columns rows colors chars-per-pixel */
"32 32 2 1 ",
"  c None",
". c #D4FF00",
/* pixels */
"                                ",
"                                ",
"  .                        .    ",
"                                ",
"                                ",
"                                ",
"                                ",
"                ......          ",
"                 ... ..         ",
"             ....     .         ",
"           ..          .        ",
"         ..             .       ",
"       ..               .       ",
"       .                .       ",
"      .                 .       ",
"     .       ...        .       ",
"     .      .           .       ",
"    .      .           .        ",
"    .     ..           .        ",
"    .     .......     .         ",
"    .      .          .         ",
"    .               ..          ",
"     .              .           ",
"      .           ..            ",
"       ...........              ",
"                                ",
"                                ",
"                                ",
"                                ",
"   .                       .    ",
"                                ",
"                                "
};
