/* XPM */
static char *_b7387247bdc468decff232b70384725dUsrd44YDW1MqgBO[] = {
/* columns rows colors chars-per-pixel */
"32 32 2 1 ",
"  c None",
". c white",
/* pixels */
"                                ",
"                                ",
"                                ",
"                                ",
"                                ",
"         ...............        ",
"         ...............        ",
"         ..          ....       ",
"         ..          ....       ",
"         ..  ..      ....       ",
"         ................       ",
"         ...    ...   ..        ",
"         ...    ...   ..        ",
"         ...    ...   ..        ",
"         ...............        ",
"         ...          ..        ",
"         ..           ..        ",
"         ..            ..       ",
"         ..            ..       ",
"         .. .............       ",
"         ................       ",
"         ....        ....       ",
"                                ",
"                                ",
"                                ",
"                                ",
"                                ",
"                                ",
"                                ",
"                                ",
"                                ",
"                                "
};
