/* XPM */
static char *af60ec833ffe4d4ed9e57d477bb2faf3kxHV9z0hMhv80N9a[] = {
/* columns rows colors chars-per-pixel */
"32 32 2 1 ",
"  c None",
". c #0002FF",
/* pixels */
"................................",
".                              .",
".                              .",
".                              .",
".                              .",
".                              .",
".                              .",
".       .                      .",
".                              .",
".                    .         .",
".                              .",
".                              .",
".                              .",
".     ..                      ..",
".     . ...                   ..",
".     .    ...                ..",
".      .      .....   ..      ..",
".      .           .......    ..",
".       ..          ..        ..",
".         ...    ....          .",
".            ....              .",
".                              .",
".                              .",
".                              .",
".                              .",
".                              .",
".                              .",
".                              .",
".                              .",
".                              .",
".                              .",
"................................"
};
