/* XPM */
static char * coins_1_xpm[] = {
"32 32 6 1",
" 	c #B3B3B3",
".	c #E8E8E8",
"+	c #000000",
"@	c #E8C1EA",
"#	c #2B2A26",
"$	c #826983",
"  .............   ............  ",
"   ...........     ..........   ",
".   .........   .   ........   .",
"..  +++++++++++++++++++++++++ ..",
"... +@@@@@@@@@@@@@@@@@@@@@@@+...",
"....+@@@@@@@@@@@@@@@@@@@@@@@+...",
"....+@@@@##@@@@@@@@@@@@@@@@@+...",
"....+@@@###@@@@#@@@@@@@@@@@@+...",
"....+@@@@@@#@@##@@@@@@@@@@@@+...",
"....+@@@@@@###@@#######@@@@@+...",
"....+@@@@@@@#@@@@@@##@@@@@@@+...",
"....+@@@@@@@@@@@@@@@@@@@@@@@+...",
"....+@@@@@@@@@@@@@@@@@@@@@@@+ ..",
"....+@@@@@@@@@@@@@@@@@@@@@@@+  .",
"....+@@@@@@@@@@@@@@@@@@@@@@@+   ",
" ...+@@@@@@#@@@@@#@@@@@@@@@@+.  ",
"  ..+@@#@@##@@@####@#####@@@+   ",
"   .+@@####@@@#@@@##@@@@@@@@+  .",
".   +@@@@@@@@@@@@@@@@@@@@@@@+ ..",
"..  +@@@@@@@@@@@@@@@@@@@@@@@+...",
"... +@@@@@@@@@@@@@@@@@@@@@@@+...",
"....+@@@@@@@@@@@@@@@@@@@@@@@+...",
"....+@@@@@@@@@@@@@@@@@@@@@@@+...",
"....+@@@@@#@@@@@@@@###@@+++++...",
"....+@@@@@##########@@@@+$$$+...",
"....+@@@@@@@@@@@@@@@@@@@+$$$+...",
"....+@@@@@@@@@@@@@@@@@@@+$$+....",
"....+++++++++++++++++++++++  ...",
"...........   .............   ..",
"............   .............   .",
".............   .............   ",
" .............   .............  "};
