/* XPM */
static char * player_fall_xpm[] = {
"32 32 169 2",
"  	c #B3B3B3",
". 	c #E8E8E8",
"+ 	c #E5E5E5",
"@ 	c #E3E3E3",
"# 	c #E7E7E7",
"$ 	c #E6E6E6",
"% 	c #9C9D9E",
"& 	c #494C50",
"* 	c #C9C9C9",
"= 	c #E1E1E1",
"- 	c #B2B2B2",
"; 	c #E1E1E2",
"> 	c #BBBBBB",
", 	c #3F3F42",
"' 	c #E4E4E4",
") 	c #A0A0A1",
"! 	c #1F252E",
"~ 	c #151D28",
"{ 	c #3C3F44",
"] 	c #3A3D42",
"^ 	c #ABABAB",
"/ 	c #979797",
"( 	c #3D3D40",
"_ 	c #343437",
": 	c #090A14",
"< 	c #A3A3A4",
"[ 	c #AFB0B1",
"} 	c #56585B",
"| 	c #2A2E36",
"1 	c #35383E",
"2 	c #CECECF",
"3 	c #D8D8D8",
"4 	c #CACACA",
"5 	c #2D2E32",
"6 	c #222227",
"7 	c #4C4C4E",
"8 	c #B8B9B9",
"9 	c #9C9C9D",
"0 	c #585A5D",
"a 	c #9D9E9E",
"b 	c #77787A",
"c 	c #22262E",
"d 	c #23252B",
"e 	c #232830",
"f 	c #131A25",
"g 	c #2F2F33",
"h 	c #858586",
"i 	c #C1C1C2",
"j 	c #454547",
"k 	c #A3A3A3",
"l 	c #E2E2E2",
"m 	c #B7B8B8",
"n 	c #5C5E61",
"o 	c #9B9C9C",
"p 	c #707173",
"q 	c #151C27",
"r 	c #0C0F18",
"s 	c #141C27",
"t 	c #5C5E60",
"u 	c #A7A7A7",
"v 	c #939393",
"w 	c #929293",
"x 	c #747577",
"y 	c #5F6163",
"z 	c #9B9B9B",
"A 	c #E6E7E6",
"B 	c #0B0E18",
"C 	c #121823",
"D 	c #737374",
"E 	c #8A8A8B",
"F 	c #4F4F51",
"G 	c #9F9F9F",
"H 	c #68696B",
"I 	c #A6A6A6",
"J 	c #6C6D6F",
"K 	c #0F151F",
"L 	c #111722",
"M 	c #58595C",
"N 	c #BEBEBE",
"O 	c #9D9D9D",
"P 	c #717172",
"Q 	c #9E9E9E",
"R 	c #D4D4D4",
"S 	c #888889",
"T 	c #B3B3B4",
"U 	c #44474B",
"V 	c #10151F",
"W 	c #111721",
"X 	c #141C26",
"Y 	c #8B8C8D",
"Z 	c #D3D4D4",
"` 	c #848486",
" .	c #A1A1A2",
"..	c #646568",
"+.	c #101620",
"@.	c #5E5F62",
"#.	c #88898A",
"$.	c #C5C5C6",
"%.	c #46484D",
"&.	c #67696B",
"*.	c #CFCFCF",
"=.	c #98999A",
"-.	c #33363C",
";.	c #7F8082",
">.	c #B1B1B1",
",.	c #4A4C50",
"'.	c #7D7E80",
").	c #6D6E70",
"!.	c #242932",
"~.	c #131B25",
"{.	c #323336",
"].	c #131A24",
"^.	c #2C2C2F",
"/.	c #A0A0A0",
"(.	c #717274",
"_.	c #1B222B",
":.	c #36393E",
"<.	c #0A0C16",
"[.	c #212226",
"}.	c #A9A9A9",
"|.	c #57585B",
"1.	c #A2A2A2",
"2.	c #48484A",
"3.	c #4E4E4F",
"4.	c #989899",
"5.	c #DFDFDF",
"6.	c #9F9FA0",
"7.	c #545455",
"8.	c #AEAEAF",
"9.	c #737576",
"0.	c #747576",
"a.	c #575758",
"b.	c #E0E0E0",
"c.	c #CDCECE",
"d.	c #54565A",
"e.	c #ACACAC",
"f.	c #9A9A9A",
"g.	c #B5B5B6",
"h.	c #6E6F71",
"i.	c #767677",
"j.	c #636365",
"k.	c #9B9B9C",
"l.	c #4C4D4E",
"m.	c #3E4146",
"n.	c #ADADAD",
"o.	c #656566",
"p.	c #AEAFAF",
"q.	c #9E9E9F",
"r.	c #686869",
"s.	c #CCCCCC",
"t.	c #373B40",
"u.	c #525254",
"v.	c #BFBFBF",
"w.	c #30343A",
"x.	c #DDDDDE",
"y.	c #49494B",
"z.	c #BCBCBC",
"A.	c #C9C9CA",
"B.	c #78787A",
"C.	c #32363C",
"D.	c #D9D9D9",
"E.	c #606164",
"F.	c #1E242D",
"G.	c #797B7D",
"H.	c #A2A3A3",
"I.	c #B2B2B3",
"J.	c #56575B",
"K.	c #515357",
"L.	c #55575A",
"    . . . . . . . . + @ # . .       . . . $ @ $ . . . . . .     ",
"      . . . . . . $ % & * = -         $ ; > ,   . . . . .       ",
".       . . . . ' ) ! ~ { ] ) - . - ^ / ( _ : < + . . .       . ",
". .       . . . [ ~ ~ } | ~ 1 2 3 4 5 6 : , 7 : 8 . .       . . ",
". . .       . = 9 ~ 0 a b | ~ c d e ~ f g h i j k l       . . . ",
". . . .       m ~ n o   - p q r s ~ ~ ~ t u ^ v : w     . . . . ",
". . . . .   ^ x y z     A p q B s ~ ~ ~ C D E : F G   . . . . . ",
". . . . . . w ~ H I   . # J ~ K L ~ ~ ~ M N O P Q   . . . . . . ",
". . . . . . R y ~ S . . . T U ~ V W ~ X Y . .       . . . . . . ",
". . . . . . . Z `  .  . . . ..~ ~ +.K K E . . .       . . . . . ",
". . . . . . . . .       . $ @.~ ~ q W C #.. . . .       . . . . ",
". . . . . . . . . .       # $.%.~ ~ ~ &.*.. . . . .       . . . ",
". . . . . . . . . . .     - =.-.~ ~ ~ ;.. . . . . . .       . . ",
". . . . . . . . . . . .   >.,.~ ~ ~ ~ '.. . . . . . . .       . ",
". . . . . . . . . . . . . ).!.~ ~ ~ ~.{.Q . . . . . . . .       ",
"  . . . . . . . . . . . . p ~ ~ ~ ~ ].: ^./.# . . . . . . .     ",
"    . . . . . . . . . . . (.~ ~ _.:.<.: : [.}.. . . . . .       ",
"      . . . . . . . . . . |.~ _.|.1.2.3.: : 4.' . . . .       . ",
".       . . . . . . . .   } ~ %.5.  >.6.7.: : 8.. . .       . . ",
". .       . . . . . .     9.-.%.= .     O 0.a.4.b..       . . . ",
". . .       . . . .       c.d.%.= . .     e.f.: g.      . . . . ",
". . . .       . .       . h.~ %.= . . . e.i.: j.k.    . . . . . ",
". . . . .             . . (.~ %.= . . 5.f.: l.k.    . . . . . . ",
". . . . . .         . . . (.~ m.= b.n.4.: o.k.    . . . . . . . ",
". . . . . . .       . . . (.| p.+ = q.: r.s..       . . . . . . ",
". . . . . . . .       . . (.t.5.. . l k u.v.. .       . . . . . ",
". . . . . . . . .       . p w.x.. . . = 1.y.z.. .       . . . . ",
". . . . . . . . . .       x v.+ . . . . b.A.3 . . .       . . . ",
". . . . . . . . . . .   B.C.D.. . . . . . . . . . . .       . . ",
". . . . . . . . . . . . E.F.u . . . . . . . . . . . . .       . ",
". . . . . . . . . . . ' G.F.H.I.. . . . . . . . . . . . .       ",
"  . . . . . . . . . . ) J.K.L.e.  . . . . . . . . . . . . .     "};
