/* XPM */
static char * player_idle_left_xpm[] = {
"32 32 7 1",
" 	c #B3B3B3",
".	c #E8E8E8",
"+	c #E6E6E6",
"@	c #151D28",
"#	c #B2B2B2",
"$	c #E5E5E5",
"%	c #090A14",
"  .............   ............  ",
"   ...........     ..........   ",
".   ........+@@@+   ........   .",
"..   .......@@@@@.   ......   ..",
"...   ..... @@@@@..   ....   ...",
"....   ...  @@@@@...   ..   ....",
".....   .   @@@@.....      .....",
"......    #++@@@@@....    ......",
".......   $%@@@@@@@....   ......",
"........  #%@@@@@@@.....   .....",
"......... %%@@@@@@@@.....   ....",
"..........%@@@@@@@@@......   ...",
".........+%@@@@@@@@@.......   ..",
".........+%@@@@@@+@@@.......   .",
".........+%@@@@@@+@@@........   ",
" ........+%@@@@@@++@@.........  ",
"  .......+%@@@@@@#+@@........   ",
"   .......%@@@@@@@#@@.......   .",
".   ....+%%@@@@@@@@@@......   ..",
"..   ...+%%%@@@@@@@@@.....   ...",
"...   ..$.%%%@@@@@@@  ...   ....",
"....   .. #%%%.@@@@@   .   .....",
".....      %%%..@@@..     ......",
"......    .%%%..@@@...   .......",
".......   .%%++.+@@@...   ......",
"........   .%%+..+@@....   .....",
".........   %%+..+@@@....   ....",
"..........  %%%...+@@.....   ...",
"...........  %%...+@@@.....   ..",
"............ %%...++@@......   .",
"............%%%%...+@@@......   ",
" .........%%%%%  .+@@@@@......  "};
