/* XPM */
static char * player_idle_1_xpm[] = {
"32 32 6 1",
" 	c #B3B3B3",
".	c #E8E8E8",
"+	c #B2B2B2",
"@	c #151D28",
"#	c #E6E6E6",
"$	c #090A14",
"  .............   ............  ",
"   ........... +@@@#.........   ",
".   .........  @@@@@........   .",
"..   .......   @@@@@ ......   ..",
"...   .....   .@@@@@  ....   ...",
"....   ...   ...@@@@   ..   ....",
".....   .   ...@@@@##+     .....",
"......     ...@@@@@@##    ......",
".......   ...@@@@@@@$#.   ......",
"........   ..@@@@@@@$#..   .....",
".........   @@@@@@@@$$...   ....",
"..........  @@@@@@@@@$....   ...",
"........... @@@@@@@@@$#....   ..",
"...........@@@+@@@@@@$#.....   .",
"...........@@@++@@@@@$#......   ",
" ..........@@#+@@@@@@$#.......  ",
"  .........@@#+@@@@@@$#......   ",
"   ........@@+@@@@@@@$......   .",
".   .......@@@@@@@@@@$$#...   ..",
"..   ......@@@@@@@@@$$$#..   ...",
"...   ....  @@@@@@@$$$.#.   ....",
"....   ..   @@@@@.$$$+ #   .....",
".....      ..@@@..$$$+    ......",
"......    ...@@@..$$$.   .......",
".......   ..@@@#.##$$..   ......",
"........   .@@#..#$$....   .....",
".........  @@@#..#$$.....   ....",
".......... @@#...$$$......   ...",
"..........@@@+...$$........   ..",
"..........@@++ ..$$.........   .",
".........@@@#   $$$$.........   ",
" .......@@@@@#   $$$$$........  "};
