/* XPM */
static char * player_fall_left_xpm[] = {
"32 32 170 2",
"  	c #B3B3B3",
". 	c #E8E8E8",
"+ 	c #E6E6E6",
"@ 	c #E3E3E3",
"# 	c #E7E7E7",
"$ 	c #E5E5E5",
"% 	c #3F3F42",
"& 	c #BBBBBB",
"* 	c #E1E1E2",
"= 	c #B2B2B2",
"- 	c #AEAEAE",
"; 	c #C9C9C9",
"> 	c #494C50",
", 	c #9C9D9E",
"' 	c #A3A3A4",
") 	c #090A14",
"! 	c #343437",
"~ 	c #3D3D40",
"{ 	c #C4C4C4",
"] 	c #ABABAB",
"^ 	c #A0A0A1",
"/ 	c #3A3D42",
"( 	c #2F3339",
"_ 	c #151D28",
": 	c #1F252E",
"< 	c #E4E4E4",
"[ 	c #B8B9B9",
"} 	c #4C4C4E",
"| 	c #222227",
"1 	c #2D2E32",
"2 	c #9C9C9C",
"3 	c #D8D8D8",
"4 	c #CECECF",
"5 	c #44474B",
"6 	c #2A2E36",
"7 	c #424549",
"8 	c #AFB0B1",
"9 	c #E2E2E2",
"0 	c #A3A3A3",
"a 	c #454547",
"b 	c #C1C1C2",
"c 	c #ADADAE",
"d 	c #2F2F33",
"e 	c #131A25",
"f 	c #232830",
"g 	c #23252B",
"h 	c #22262E",
"i 	c #35393F",
"j 	c #77787A",
"k 	c #9D9E9E",
"l 	c #9C9C9D",
"m 	c #E1E1E1",
"n 	c #929293",
"o 	c #939393",
"p 	c #DEDEDE",
"q 	c #A7A7A7",
"r 	c #5C5E60",
"s 	c #141C27",
"t 	c #0C0F18",
"u 	c #151C27",
"v 	c #707173",
"w 	c #E6E7E6",
"x 	c #9B9C9C",
"y 	c #47494D",
"z 	c #B7B8B8",
"A 	c #9F9F9F",
"B 	c #4F4F51",
"C 	c #8A8A8B",
"D 	c #737374",
"E 	c #121823",
"F 	c #0B0E18",
"G 	c #9B9B9B",
"H 	c #494C4F",
"I 	c #747577",
"J 	c #9E9E9E",
"K 	c #717172",
"L 	c #9D9D9D",
"M 	c #929292",
"N 	c #58595C",
"O 	c #111722",
"P 	c #0F151F",
"Q 	c #6C6D6F",
"R 	c #A6A6A6",
"S 	c #68696B",
"T 	c #8B8C8D",
"U 	c #141C26",
"V 	c #111721",
"W 	c #10151F",
"X 	c #B3B3B4",
"Y 	c #B1B1B2",
"Z 	c #5F6163",
"` 	c #A3A4A4",
" .	c #101620",
"..	c #646568",
"+.	c #D1D1D1",
"@.	c #ABACAD",
"#.	c #686A6C",
"$.	c #5E5F62",
"%.	c #9FA0A0",
"&.	c #4F5155",
"*.	c #46484D",
"=.	c #C5C5C6",
"-.	c #616365",
";.	c #33363C",
">.	c #98999A",
",.	c #606164",
"'.	c #606265",
").	c #323336",
"!.	c #131B25",
"~.	c #2D3138",
"{.	c #8D8E90",
"].	c #A0A0A0",
"^.	c #2C2C2F",
"/.	c #131A24",
"(.	c #A9A9A9",
"_.	c #212226",
":.	c #0A0C16",
"<.	c #36393E",
"[.	c #1B222B",
"}.	c #717274",
"|.	c #989899",
"1.	c #4E4E4F",
"2.	c #48484A",
"3.	c #A2A2A2",
"4.	c #57585B",
"5.	c #AEAEAF",
"6.	c #545455",
"7.	c #9F9FA0",
"8.	c #B1B1B1",
"9.	c #DFDFDF",
"0.	c #56585B",
"a.	c #E0E0E0",
"b.	c #575758",
"c.	c #747576",
"d.	c #737576",
"e.	c #B5B5B6",
"f.	c #9A9A9A",
"g.	c #ACACAC",
"h.	c #54565A",
"i.	c #CDCECE",
"j.	c #CACACA",
"k.	c #636365",
"l.	c #767677",
"m.	c #6E6F71",
"n.	c #9B9B9C",
"o.	c #4C4D4E",
"p.	c #656566",
"q.	c #ADADAD",
"r.	c #3E4146",
"s.	c #CCCCCC",
"t.	c #686869",
"u.	c #9E9E9F",
"v.	c #AEAFAF",
"w.	c #525254",
"x.	c #373B40",
"y.	c #919191",
"z.	c #37373A",
"A.	c #7C7C7D",
"B.	c #DDDDDE",
"C.	c #30343A",
"D.	c #BFBFBF",
"E.	c #D9D9D9",
"F.	c #404348",
"G.	c #232831",
"H.	c #7D7E80",
"I.	c #D2D2D3",
"J.	c #797B7D",
"K.	c #6F7073",
"L.	c #515357",
"M.	c #56575B",
"    . . . . . . + @ + . . . .       . # @ $ . . . . . . . .     ",
"      . . . . .   % & * + .       = - ; > , + . . . . . .       ",
".       . . . $ ' ) ! ~ { ] =   # ^ / ( _ : ^ < . . . .       . ",
". .       . . [ ) } % ) | 1 2 3 4 5 _ 6 7 _ _ 8 . . .       . . ",
". . .       9 0 a b c d e _ f g h _ i j k 5 _ l m .       . . . ",
". . . .     n ) o p q r _ _ _ s t u v w   x y _ z       . . . . ",
". . . . .   A B ) C D E _ _ _ s F u v w .   G H I ]   . . . . . ",
". . . . . .   J K L M N _ _ _ O P _ Q # . . R S _ n . . . . . . ",
". . . . . . .       . T U _ V W _ 5 X . . . Y _ Z ` . . . . . . ",
". . . . . . . .       C P P  ._ _ ... . . . +.@.0     . . . . . ",
". . . . . . . . .     #.E V u _ _ $.+ . . . . . .       . . . . ",
". . . . . . . . . .   %.&._ _ _ *.=.# . . . . . . .       . . . ",
". . . . . . . . . . .   -._ _ _ ;.>.# . . . . . . . .       . . ",
". . . . . . . . . . . . ,._ _ _ _ '.$ . . . . . . . . .       . ",
". . . . . . . . . . . J ).!._ _ _ ~.{.. . . . . . . . . .       ",
"  . . . . . . . . # ].^.) /._ _ _ _ v . . . . . . . . . . .     ",
"    . . . . . . . (._.) ) :.<.[._ _ }.. . . . . . . . . .       ",
"      . . . . . < |.) ) 1.2.3.4.[._ 4.. . . . . . . . .       . ",
".       . . . . 5.) ) 6.7.8.  9.*._ 0.  . . . . . . .       . . ",
". .       . . a.|.b.c.L     . m *.;.d.    . . . . .       . . . ",
". . .       . e.) f.g.    . . m *.h.i.      . . .       . . . . ",
". . . .       j.k.) l.g.. . . m *._ m..       .       . . . . . ",
". . . . .       n.o.) f.9.. . m *._ }.. .           . . . . . . ",
". . . . . .       n.p.) |.q.a.m r._ }.. . .       . . . . . . . ",
". . . . . . .       s.t.) u.m $ v.6 }.. . . .       . . . . . . ",
". . . . . . . .     o w.0 9 . . 9.x.}.. . . . .       . . . . . ",
". . . . . . . . . y.z.A.m . . . B.C.v . . . . . .       . . . . ",
". . . . . . . . . 3 G q.  . . . $ D.I . . . . . . .       . . . ",
". . . . . . . . . . .       . . . E.F.l . . . . . . .       . . ",
". . . . . . . . . . . .       . . E.G.H.. . . . . . . .       . ",
". . . . . . . . . . . . .       # I.G.J.< . . . . . . . .       ",
"  . . . . . . . . . . . . .     g.K.L.M.^ . . . . . . . . .     "};
