/* XPM */
static char *_01050bfb99b415ae77afea7556f78efZ2ovajIc1JffskhU[] = {
/* columns rows colors chars-per-pixel */
"32 32 3 1 ",
"  c #4A2238",
". c #52283F",
"X c #5B3047",
/* pixels */
"                                ",
"          ..                ..  ",
"        ..XX..             .XX. ",
"        .XXX..             XXX. ",
"        .XXX..             ...  ",
"         ....      ....         ",
" ..               ......  ..    ",
" ..               .XX...  ..    ",
"                 ..XXX..        ",
" .....           .XXXX..    ..  ",
" .XXX..          .XXXX..   .XX. ",
" .XXXX.           .....    .XX. ",
" .XXXX.  ..              .. ..  ",
" ..XXX. ...             XX..    ",
"  ....  ...  .          XX..    ",
"                         ..     ",
"                                ",
"           ..      ..           ",
"     ....  ...    .X..          ",
"    .XXX.  ...    XXX.          ",
"    .XXX..  .     XXX.          ",
"    .XXX..        ...           ",
"    ..XX.                       ",
" .    ..                        ",
"            ..     ...    ..    ",
" ...      ..XX.   ..... .XX..   ",
" ...      .XXX.  ..XX.. .XXX.   ",
" ..       .XXX.  .XXXX. .XXX.   ",
"       .. .XXX.  .XXXX.. ....   ",
"      ...   ...  .......        ",
"      ... .        .....        ",
"                                "
};
