/* XPM */
static char * exit_open_xpm[] = {
"32 32 10 1",
" 	c #B3B3B3",
".	c #E8E8E8",
"+	c #000000",
"@	c #5B5B5B",
"#	c #D3D3D3",
"$	c #3F3131",
"%	c #825050",
"&	c #563D1B",
"*	c #868484",
"=	c #575757",
"  ..++++++++++++++++++++++++..  ",
"   .+@@@@@@@@@@@@@@@@@@@@@@+.   ",
".   +@@##################@@+   .",
"..  ++@#++++++++++++++++#@++  ..",
"...  +@#++++++$%%%%%%%$+#@+  ...",
".... +@#++++++$%%%%%%%$+#@+ ....",
".....+@#++++++$%%%%%%%$+#@+.....",
".....+@#++++++$%%%%%%%$+#@+.....",
".....+@#++++++$%%%%%%%$+#@+.....",
".....+@#++++++$%%%%%%%$+#@+.....",
".....+@#++++++$%%%%%%%$+#@+ ....",
".....+@#++++++$%%%%%%%$+#@+  ...",
".....+@#++++++$%%%%%%%$+#@+   ..",
".....+@#+++++++&%%%%%%$+#@+.   .",
".....+@#+++++*=+$%%%%%$+#@+..   ",
" ....+@#+++++++$$$%%%%$+#@+...  ",
"  ...+@#++++++$%$$$%%%$+#@+..   ",
"   ..+@#++++++$%%$$$%%$+#@+.   .",
".   .+@#++++++$%%%$$$%$+#@+   ..",
"..   +@#++++++$%%%%$$$$+#@+  ...",
"...  +@#++++++$%%%%%$$$+#@+ ....",
".... +@#++++++$%%%%%%$$+#@+.....",
".....+@#+++++++$%%%%%%$+#@+.....",
".....+@#++++++++$%%%%%$+#@+.....",
".....+@#+++++++++$%%%%$+#@+.....",
".....+@#++++++++++$%%%$+#@+.....",
".....+@#+++++++++++$%%$+#@+ ....",
".....+@#++++++++++++$%$+#@+  ...",
".....+@#++++++++++++++++#@+   ..",
".....+@##################@+.   .",
".....+@@@@@@@@@@@@@@@@@@@@+..   ",
" ....++++++++++++++++++++++...  "};
