/* XPM */
static char * exit_xpm[] = {
"32 32 9 1",
" 	c #B3B3B3",
".	c #E8E8E8",
"+	c #000000",
"@	c #5B5B5B",
"#	c #575757",
"$	c #D3D3D3",
"%	c #3F3131",
"&	c #825050",
"*	c #868484",
"  ..++++++++++++++++++++++++..  ",
"   .+@@@@@@@@@@@@@@@@@@@@##+.   ",
".   +@#$$$$$$$$$$$$$$$$$$@#+   .",
"..  ++@$++++++++++++++++$@++  ..",
"...  +@$+%%%%%%%%%%%%%%+$#+  ...",
".... +@$+%&&&&&&&&&&&&%+$#+ ....",
".....+@$+%&&&&&&&&&&&&%+$#+.....",
".....+#$+%&&&&&&&&&&&&%+$#+.....",
".....+#$+%&&&&&&&&&&&&%+$@+.....",
".....+#$+%&&&&&&&&&&&&%+$@+.....",
".....+#$+%&&&&&&&&&&&&%+$@+ ....",
".....+#$+%&&&&&&&&&&&&%+$#+  ...",
".....+#$+%&&&&&&&&&&&&%+$#+   ..",
".....+#$+%&&&&&&&&&&&&%+$#+.   .",
".....+#$+%&&&&&&&&&&&&%+$#+..   ",
" ....+#$+%&&&&&&&&&&&&%+$#+...  ",
"  ...+@$+%%%%%%%%%%%%%%+$#+..   ",
"   ..+@$+%%++%%%%%%%%%%+$#+.   .",
".   .+@$+%+*@+%%%%%%%%%+$#+   ..",
"..   +@$+%%++%%%%%%%%%%+$#+  ...",
"...  +@$+%&&&&&&&&&&&&%+$#+ ....",
".... +@$+%&&&&&&&&&&&&%+$#+.....",
".....+@$+%&&&&&&&&&&&&%+$@+.....",
".....+@$+%&&&&&&&&&&&&%+$@+.....",
".....+@$+%&&&&&&&&&&&&%+$@+.....",
".....+@$+%&&&&&&&&&&&&%+$@+.....",
".....+#$+%&&&&&&&&&&&&%+$@+ ....",
".....+#$+%%%%%%%%%%%%%%+$@+  ...",
".....+#$++++++++++++++++$@+   ..",
".....+#$$$$$$$$$$$$$$$$$$@+.   .",
".....+####################+..   ",
" ....++++++++++++++++++++++...  "};
